<?xml version="1.0" encoding="iso-8859-1"?>
<!-- Generator: Adobe Illustrator 19.0.0, SVG Export Plug-In . SVG Version: 6.00 Build 0)  -->
<svg version="1.1" id="Layer_1" xmlns="http://www.w3.org/2000/svg" xmlns:xlink="http://www.w3.org/1999/xlink" x="0px" y="0px"
	 viewBox="0 0 512.016 512.016" style="enable-background:new 0 0 512.016 512.016;" xml:space="preserve">
<circle cx="127.328" cy="198.224" r="62.816"/>
<path d="M124.352,407.024L63.664,275.472c0,0-63.664,0.848-63.664,59.408s0,72.144,0,72.144S124.784,407.024,124.352,407.024z"/>
<path d="M130.304,407.024l60.688-131.552c0,0,63.664,0.848,63.664,59.408s0,72.144,0,72.144S129.872,407.024,130.304,407.024z"/>
<polygon style="fill:#22ACDD;" points="127.328,275.456 83.616,275.456 127.328,372.224 171.04,275.456 "/>
<g>
	<path style="fill:#FF6600;" d="M209.568,189.472l99.984-51.504v14.864l-84.256,42.24v0.432l84.256,42.24v14.864l-99.984-51.504
		V189.472z"/>
	<path style="fill:#FF6600;" d="M323.632,261.232l60.112-156.24H398.4l-60.336,156.24H323.632z"/>
	<path style="fill:#FF6600;" d="M512.016,201.296l-99.984,51.296v-14.864l84.912-42.24v-0.432l-84.912-42.24v-14.848l99.984,51.28
		V201.296z"/>
</g>
<g>
</g>
<g>
</g>
<g>
</g>
<g>
</g>
<g>
</g>
<g>
</g>
<g>
</g>
<g>
</g>
<g>
</g>
<g>
</g>
<g>
</g>
<g>
</g>
<g>
</g>
<g>
</g>
<g>
</g>
</svg>
